<svg xmlns="http://www.w3.org/2000/svg" version="1.1" xmlns:xlink="http://www.w3.org/1999/xlink" xmlns:svgjs="http://svgjs.dev/svgjs" width="308" height="304" viewBox="0 0 2000 2000"><g transform="matrix(1,0,0,1,-0.28443113772425477,-0.28443113772459583)"><svg viewBox="0 0 334 334" data-background-color="#ffffff" preserveAspectRatio="xMidYMid meet" height="2000" width="2000" xmlns="http://www.w3.org/2000/svg" xmlns:xlink="http://www.w3.org/1999/xlink"><g id="tight-bounds" transform="matrix(1,0,0,1,0.04749999999998522,0.04750000000001364)"><svg viewBox="0 0 333.90454557049503 333.90454557049503" height="333.90454557049503" width="333.90454557049503"><g><svg></svg></g><g><svg viewBox="0 0 333.90454557049503 333.90454557049503" height="333.90454557049503" width="333.90454557049503"><g><path d="M0 166.952c0-92.205 74.747-166.952 166.952-166.952 92.205 0 166.952 74.747 166.953 166.952 0 92.205-74.747 166.952-166.953 166.953-92.205 0-166.952-74.747-166.952-166.953zM166.952 316.63c82.665 0 149.677-67.013 149.678-149.678 0-82.665-67.013-149.677-149.678-149.677-82.665 0-149.677 67.013-149.677 149.677 0 82.665 67.013 149.677 149.677 149.678z" data-fill-palette-color="tertiary" fill="#113f67" stroke="transparent"></path><ellipse rx="160.27418187383762" ry="160.27418187383762" cx="166.95227278524752" cy="166.95227278524752" fill="#113f67" stroke="transparent" stroke-width="0" fill-opacity="1" data-fill-palette-color="tertiary"></ellipse></g><g transform="matrix(1,0,0,1,99.51125082307982,71.17305217166896)"><svg viewBox="0 0 134.8820439243354 191.55844122715712" height="191.55844122715712" width="134.8820439243354"><g><svg viewBox="0 0 134.8820439243354 191.55844122715712" height="191.55844122715712" width="134.8820439243354"><g><svg viewBox="0 0 134.88204392433542 191.55844122715715" height="191.55844122715712" width="134.8820439243354"><g><svg viewBox="0 0 134.88204392433542 191.55844122715715" height="191.55844122715715" width="134.88204392433542"><g id="textblocktransform"><svg viewBox="0 0 134.88204392433542 191.55844122715715" height="191.55844122715715" width="134.88204392433542" id="textblock"><g><svg viewBox="0 0 134.88204392433542 191.55844122715715" height="191.55844122715715" width="134.88204392433542"><g transform="matrix(1,0,0,1,0,0)"><svg width="134.88204392433542" viewBox="1.46 -35.55 25.4 36.059999999999995" height="191.55844122715715" data-palette-color="#ffffff"><path d="M12.28 0.51L12.28 0.51Q9.33 0.51 6.93-0.66L6.93-0.66Q4.52-1.83 3.06-4.2 1.61-6.57 1.46-10.13L1.46-10.13 1.51-10.28 6.13-10.28Q6.23-6.69 7.78-5 9.33-3.32 12.21-3.32L12.21-3.32Q14.26-3.32 15.53-4.2L15.53-4.2Q16.82-5.05 17.44-6.58 18.07-8.11 18.07-10.08L18.07-10.08 18.07-31.76 13.33-32.4 13.33-35.55 26.86-35.55 26.86-32.45 22.88-31.76 22.88-10.08Q22.88-6.88 21.68-4.52L21.68-4.52Q20.48-2.12 18.12-0.81 15.75 0.51 12.28 0.51Z" opacity="1" transform="matrix(1,0,0,1,0,0)" fill="#ffffff" class="wordmark-text-0" data-fill-palette-color="quaternary" id="text-0"></path></svg></g></svg></g></svg></g></svg></g><g></g></svg></g></svg></g></svg></g></svg></g><defs></defs></svg><rect width="333.90454557049503" height="333.90454557049503" fill="none" stroke="none" visibility="hidden"></rect></g></svg></g></svg>